<svg width="74" height="24" viewBox="0 0 74 24" fill="none" xmlns="http://www.w3.org/2000/svg">
<rect width="73.0542" height="24" fill="black" fill-opacity="0"/>
<rect width="73.0542" height="24" fill="black" fill-opacity="0"/>
<path d="M10.4805 18.3565C10.6665 18.3565 10.9146 18.3565 11.1006 18.2944L10.9146 16.434C10.7905 16.434 10.6045 16.496 10.4805 16.496C10.3564 16.496 10.1704 16.496 10.0463 16.434C9.73627 16.372 9.48821 16.2479 9.24015 16.1239L8.68201 17.9844C9.0541 18.1704 9.42619 18.2944 9.8603 18.3565C10.0463 18.3565 10.2944 18.3565 10.4805 18.3565Z" fill="#34BCAA"/>
<path d="M10.4807 21.1472C10.1706 21.1472 9.86052 21.1472 9.61246 21.0852C8.99231 21.0232 8.43417 20.8372 7.87603 20.6511L7.06982 23.3798C7.81401 23.6279 8.5582 23.8139 9.3644 23.9379C9.73649 24 10.1086 24 10.5427 24C10.9148 24 11.3489 24 11.721 23.9379L11.4109 21.0852C11.1008 21.1472 10.7908 21.1472 10.4807 21.1472Z" fill="#34BCAA"/>
<path d="M15.3796 11.969C15.3796 11.783 15.3796 11.6589 15.3796 11.4729L13.5192 11.6589C13.5192 11.783 13.5192 11.845 13.5192 11.969C13.5192 12.0931 13.5192 12.1551 13.5192 12.2791C13.5192 12.4651 13.5192 12.6512 13.4572 12.8993L15.2556 13.4574C15.3176 13.1473 15.3176 12.8372 15.3796 12.4651C15.3796 12.2791 15.3796 12.1551 15.3796 11.969Z" fill="#8BC751"/>
<path d="M20.9611 10.9766L18.1704 11.2246C18.1704 11.4727 18.1704 11.7207 18.1704 11.9688C18.1704 12.2169 18.1704 12.4649 18.1704 12.713C18.1084 13.2091 18.0464 13.7052 17.9844 14.2014L20.7131 15.0076C20.8371 14.3254 20.9611 13.6432 21.0231 12.9611C21.0231 12.651 21.0852 12.2789 21.0852 11.9068C20.9611 11.6587 20.9611 11.2866 20.9611 10.9766Z" fill="#8BC751"/>
<path d="M18.1706 11.9692C18.1706 11.7211 18.1706 11.473 18.1706 11.225L15.3799 11.473C15.3799 11.6591 15.3799 11.7831 15.3799 11.9692C15.3799 12.1552 15.3799 12.2792 15.3799 12.4653C15.3799 12.7754 15.3179 13.0854 15.2559 13.4575L17.9845 14.2637C18.1086 13.7676 18.1706 13.2715 18.1706 12.7754C18.1706 12.4653 18.1706 12.2172 18.1706 11.9692Z" fill="#00837C"/>
<path d="M12.2791 17.9224C11.907 18.1085 11.5349 18.2325 11.1008 18.2945L11.3489 21.0852C11.969 21.0232 12.5272 20.8371 13.0853 20.6511C13.6435 20.403 14.1396 20.155 14.6357 19.7829L13.2714 17.2402C12.9613 17.4883 12.6512 17.7364 12.2791 17.9224Z" fill="#EF4664"/>
<path d="M8.68199 17.9227C8.30989 17.7367 7.99981 17.4886 7.68974 17.2405C7.37966 16.9925 7.1316 16.6824 6.88353 16.3723L5.08508 18.6049C5.45718 19.039 5.89129 19.4731 6.32539 19.7832C6.82152 20.1553 7.31764 20.4033 7.87578 20.6514L8.68199 17.9227Z" fill="#EF4664"/>
<path d="M5.95365 14.3876L3.41101 15.7519C3.59706 16.248 3.84512 16.7442 4.09318 17.2403L6.32574 15.4418C6.20171 15.0697 6.07768 14.7597 5.95365 14.3876Z" fill="#EF4664"/>
<path d="M11.1009 18.2946C10.9149 18.3566 10.6668 18.3566 10.4808 18.3566C10.2947 18.3566 10.0466 18.3566 9.8606 18.2946C9.42649 18.2326 9.05439 18.1085 8.6823 17.9225L7.8761 20.6512C8.43424 20.8992 8.99238 21.0233 9.61253 21.0853C9.92261 21.1473 10.2327 21.1473 10.4808 21.1473C10.7908 21.1473 11.1009 21.1473 11.349 21.0853L11.1009 18.2946Z" fill="#00837C"/>
<path d="M6.8837 16.3723L8.12401 14.884C7.99998 14.6979 7.93797 14.4498 7.81394 14.2018L6.32556 15.4421C6.51161 15.7522 6.69766 16.0622 6.8837 16.3723Z" fill="#2B93D1"/>
<path d="M4.09303 17.2402L1.86047 19.0387C2.23257 19.6588 2.72869 20.279 3.22482 20.8371L5.08528 18.6046C4.71319 18.1705 4.40311 17.7364 4.09303 17.2402Z" fill="#2B93D1"/>
<path d="M6.32558 15.3798L4.09302 17.1782C4.4031 17.6743 4.71317 18.1084 5.02325 18.5426L6.8217 16.31C6.69767 16.0619 6.51162 15.7519 6.32558 15.3798Z" fill="#793393"/>
<path d="M17.9223 9.73647L19.7207 9.17833C19.5967 8.55817 19.4107 7.93802 19.1626 7.31786C18.9145 6.69771 18.6045 6.07755 18.2944 5.51941L15.3176 7.93802C15.5037 8.31011 15.6897 8.6822 15.8138 9.0543L17.4882 8.18608C17.6742 8.6822 17.8603 9.17833 17.9223 9.73647Z" fill="#FFD530"/>
<path d="M9.61232 2.85253L9.42628 0.992065C8.68209 1.1161 7.99992 1.24013 7.31775 1.55021L7.87589 3.34866C8.43403 3.10059 8.99217 2.91455 9.61232 2.85253Z" fill="#FFD530"/>
<path d="M17.1162 3.90713C16.6201 3.411 16.124 2.91488 15.5658 2.54279C15.0077 2.10868 14.3255 1.7986 13.7054 1.55054L13.1472 3.34899C13.7054 3.59705 14.2015 3.84511 14.6976 4.21721L13.7674 5.89163C14.1395 6.2017 14.4495 6.51178 14.6976 6.88387L17.1162 3.90713Z" fill="#FFD530"/>
<path d="M14.6975 6.88354L12.837 9.17812C12.9611 9.36417 13.0231 9.61223 13.1471 9.86029L15.3797 7.99982C15.1936 7.56572 14.9456 7.19362 14.6975 6.88354Z" fill="#34BCAA"/>
<path d="M19.0388 4.96117C18.6667 4.34102 18.1706 3.72086 17.6745 3.16272L17.0543 3.90691C17.4884 4.40303 17.9225 4.96117 18.2946 5.51931L19.0388 4.96117Z" fill="#34BCAA"/>
<path d="M17.1161 3.90686L14.6975 6.88361C14.9456 7.19368 15.1936 7.56578 15.3797 7.99989L18.3564 5.58128C17.9843 4.96112 17.5502 4.40298 17.1161 3.90686Z" fill="#8BC751"/>
<path d="M18.1083 11.2246C18.0463 10.7285 17.9843 10.2324 17.9223 9.73624L16.1239 10.2944C16.0618 9.92229 15.9378 9.48818 15.8138 9.11609L14.9456 9.5502C15.0696 9.86028 15.1316 10.1704 15.1936 10.5424C15.2556 10.8525 15.2556 11.1626 15.3177 11.5347L18.1083 11.2246Z" fill="#793393"/>
<path d="M15.2558 13.3955C15.1937 13.7056 15.1317 14.0777 15.0077 14.3878L17.5503 15.7521C17.7364 15.256 17.8604 14.7598 17.9844 14.2637L15.2558 13.3955Z" fill="#793393"/>
<path d="M16.1239 10.2948L17.9224 9.73666C17.7983 9.24054 17.6743 8.74442 17.4883 8.24829L15.8138 9.11651C15.9999 9.4886 16.0619 9.8607 16.1239 10.2948Z" fill="#F7941D"/>
<path d="M12.837 14.8217L17.7363 20.7752C18.2324 20.2171 18.6665 19.6589 19.1006 18.9767L13.1471 14.0775C13.0231 14.3876 12.9611 14.6357 12.837 14.8217Z" fill="#FFD530"/>
<path d="M11.5969 0.992249C12.2791 1.11628 13.0233 1.24031 13.6435 1.55039L13.9535 0.620155C13.2093 0.372093 12.4652 0.186047 11.659 0.0620155C11.2869 0 10.8528 0 10.4807 0C10.1086 0 9.67446 0 9.30237 0.0620155L9.36438 0.992249C9.73648 0.930233 10.1086 0.930233 10.4186 0.930233C10.8528 0.930233 11.2249 0.930233 11.5969 0.992249Z" fill="#EF4664"/>
<path d="M11.1007 5.64344C10.9146 5.58142 10.6666 5.58142 10.4805 5.58142C10.2945 5.58142 10.0464 5.58142 9.86035 5.64344L10.0464 7.5039C10.1704 7.5039 10.3565 7.44189 10.4805 7.44189C10.6045 7.44189 10.7906 7.44189 10.9146 7.5039C11.2247 7.56592 11.4728 7.68995 11.7208 7.81398L12.279 5.95351C11.9069 5.82948 11.5348 5.70545 11.1007 5.64344Z" fill="#EF4664"/>
<path d="M10.4805 2.79064C10.7906 2.79064 11.1007 2.79064 11.3487 2.85266C11.9689 2.91467 12.527 3.10072 13.0852 3.28677L13.6433 1.55033C13.0232 1.24025 12.279 1.11622 11.5968 0.992191C11.2247 0.930176 10.8526 0.930176 10.5425 0.930176C10.1705 0.930176 9.79836 0.930176 9.48828 0.992191L9.67433 2.85266C9.86037 2.85266 10.1705 2.79064 10.4805 2.79064Z" fill="#F7941D"/>
<path d="M5.08522 5.39525C5.45731 4.96114 5.89142 4.52703 6.32553 4.21695L4.96119 1.67432C4.34103 2.10843 3.78289 2.60455 3.28677 3.16269C2.72863 3.72083 2.29452 4.27897 1.92242 4.96114C1.55033 5.5813 1.24025 6.20145 0.930176 6.88362L3.4108 8.24796C3.59684 7.75184 3.84491 7.25572 4.09297 6.75959C4.40305 6.26347 4.71312 5.82936 5.08522 5.39525Z" fill="#8BC751"/>
<path d="M6.88372 7.62811C6.69768 7.93818 6.51163 8.24826 6.32558 8.62035C6.20155 8.93043 6.07752 9.24051 5.95349 9.6126L7.62791 10.5428C7.68993 10.2948 7.75194 10.1087 7.81396 9.86067C7.87597 9.6126 8 9.36454 8.12404 9.17849C8.24807 8.93043 8.43411 8.68237 8.55814 8.49632L7.62791 6.75989C7.37985 7.00795 7.13179 7.25601 6.88372 7.62811Z" fill="#8BC751"/>
<path d="M5.64342 11.5351L2.85272 11.287C2.91473 10.7909 2.97675 10.2948 3.03876 9.79863L0.310078 8.99243C0.186047 9.6746 0.0620156 10.3568 0 11.0389C0 11.287 0 11.6591 0 11.9692C0 12.3413 0 12.6513 0.0620156 13.0234L7.50388 12.2793C7.50388 12.1552 7.50388 12.0932 7.50388 11.9692C7.50388 11.8451 7.50388 11.7831 7.50388 11.6591C7.50388 11.4731 7.50388 11.225 7.5659 11.0389L5.70543 10.5428C5.70543 10.8529 5.64342 11.163 5.64342 11.5351Z" fill="#F7941D"/>
<path d="M12.589 5.14734L12.3409 6.07757C12.713 6.26362 13.0231 6.51168 13.3332 6.75974L13.7673 5.89153C13.3952 5.58145 12.9611 5.33339 12.589 5.14734Z" fill="#2B93D1"/>
<path d="M3.47305 8.24829C3.287 8.74442 3.16297 9.24054 3.03894 9.73666L5.70561 10.5429C5.76762 10.2328 5.82964 9.8607 5.95367 9.55062L3.47305 8.24829Z" fill="#2B93D1"/>
<path d="M9.79843 4.71322C9.30231 4.77523 8.80618 4.96128 8.43409 5.14733L7.87595 3.34888C7.31781 3.59694 6.82169 3.845 6.32556 4.21709L7.6899 6.75973C7.99998 6.51167 8.31006 6.26361 8.68215 6.07756C9.05425 5.89151 9.42634 5.76748 9.86045 5.70547L9.79843 4.71322Z" fill="#2B93D1"/>
<path d="M9.79858 4.71301L9.61253 2.85254C8.99238 2.91455 8.43424 3.1006 7.8761 3.28665L8.43424 5.0851C8.80633 4.96107 9.30246 4.77502 9.79858 4.71301Z" fill="#8BC751"/>
<path d="M13.0852 3.34888L12.5271 5.14733C12.9612 5.33337 13.3333 5.58144 13.7054 5.89151L14.6356 4.21709C14.2015 3.845 13.6434 3.53492 13.0852 3.34888Z" fill="#8BC751"/>
<path d="M11.2247 4.71302C10.9766 4.651 10.7286 4.651 10.4805 4.651C10.2325 4.651 9.98439 4.651 9.73633 4.71302L9.79834 5.64325C9.98439 5.58123 10.2325 5.58123 10.4185 5.58123C10.6045 5.58123 10.8526 5.58123 11.0387 5.64325C11.4728 5.70527 11.8449 5.8293 12.217 6.01534L12.465 5.08511C12.1549 4.96108 11.6588 4.77503 11.2247 4.71302Z" fill="#793393"/>
<path d="M11.411 2.85254C11.1009 2.79053 10.7908 2.79053 10.5428 2.79053C10.2327 2.79053 9.92262 2.79053 9.67456 2.85254L9.86061 4.71301C10.1087 4.65099 10.3567 4.65099 10.6048 4.65099C10.8529 4.65099 11.1009 4.65099 11.349 4.71301C11.8451 4.77502 12.2792 4.89906 12.7133 5.0851L13.2715 3.28665C12.5893 3.10061 11.9691 2.91456 11.411 2.85254Z" fill="#00837C"/>
<path d="M6.32537 4.21729C5.89126 4.52736 5.45715 4.96147 5.08506 5.39558C4.71297 5.82969 4.40289 6.2638 4.15483 6.75992C3.90677 7.19403 3.6587 7.69016 3.47266 8.2483L6.01529 9.61264C6.13932 9.24054 6.26336 8.93047 6.38739 8.62039C6.57343 8.2483 6.75948 7.93822 6.94553 7.62814C7.19359 7.31806 7.44165 7.00798 7.75173 6.75992L6.32537 4.21729Z" fill="#00837C"/>
<path d="M3.03859 9.73657C2.91455 10.2327 2.85254 10.7288 2.85254 11.2249L5.64324 11.473C5.64324 11.1629 5.70525 10.8529 5.76727 10.4808L3.03859 9.73657Z" fill="#793393"/>
<path fill-rule="evenodd" clip-rule="evenodd" d="M10.9766 11.9691C10.9766 12.2172 10.7906 12.4032 10.5425 12.4032C10.2944 12.4032 10.1084 12.2172 10.1084 11.9691C10.1084 11.721 10.2944 11.535 10.5425 11.535C10.7285 11.535 10.9766 11.721 10.9766 11.9691ZM11.9068 12.7753C11.9068 12.7753 11.9068 12.4652 11.5968 12.4032C11.3487 12.2792 11.2867 12.2172 11.2867 12.2172L12.465 12.0311L11.2867 11.9071C11.3487 11.9071 11.4727 11.7831 11.5968 11.7211C11.7828 11.597 12.0309 11.597 12.0309 11.597C12.0309 11.597 11.8448 11.411 11.5347 11.535C11.2867 11.597 11.1626 11.597 11.1626 11.597L11.8448 10.6668L10.9146 11.349C10.9146 11.2869 10.9766 11.1629 10.9766 10.9769C10.9766 10.7908 11.1626 10.6048 11.1626 10.6048C11.1626 10.6048 10.8526 10.6048 10.7906 10.9148C10.6665 11.1629 10.6045 11.2249 10.6045 11.2249L10.4185 10.0466L10.2944 11.2249C10.2944 11.1629 10.2324 11.0389 10.1084 10.9148C9.98435 10.7288 9.98435 10.4807 9.98435 10.4807C9.98435 10.4807 9.7983 10.6668 9.92233 10.9769C9.98435 11.2249 9.98435 11.349 9.98435 11.349L9.05412 10.5428L9.73629 11.473C9.67427 11.473 9.55024 11.411 9.36419 11.411C9.17815 11.411 8.9921 11.2249 8.9921 11.2249C8.9921 11.2249 8.9921 11.535 9.30218 11.597C9.55024 11.7211 9.61226 11.7831 9.61226 11.7831L8.43396 11.9691L9.61226 12.1552C9.55024 12.1552 9.42621 12.2172 9.30218 12.3412C9.11613 12.4652 8.86807 12.4652 8.86807 12.4652C8.86807 12.4652 9.05412 12.6513 9.36419 12.5273C9.61226 12.4652 9.73629 12.4652 9.73629 12.4652L9.05412 13.3955L9.98435 12.7133C9.98435 12.7753 9.92233 12.8993 9.92233 13.0854C9.92233 13.2714 9.73629 13.4575 9.73629 13.4575C9.73629 13.4575 10.0464 13.4575 10.1084 13.1474C10.2324 12.8993 10.2944 12.8373 10.2944 12.8373L10.4805 14.0156L10.6045 12.8373C10.6045 12.8993 10.6665 13.0234 10.7906 13.1474C10.9146 13.3335 10.9146 13.5815 10.9146 13.5815C10.9146 13.5815 11.1006 13.3955 10.9766 13.0854C10.9146 12.8373 10.9146 12.7133 10.9146 12.7133L11.8448 13.3955L11.1626 12.4652C11.2247 12.4652 11.3487 12.5273 11.5347 12.5273C11.7828 12.5893 11.9068 12.7753 11.9068 12.7753Z" fill="#D93B20"/>
<path fill-rule="evenodd" clip-rule="evenodd" d="M10.4806 11.6588C10.2946 11.6588 10.1085 11.7828 10.1085 12.0309C10.1085 12.217 10.2946 12.403 10.4806 12.403C10.6667 12.403 10.8527 12.217 10.8527 12.0309C10.8527 11.7828 10.6667 11.6588 10.4806 11.6588Z" fill="#D93B20"/>
<path d="M45.2093 15.6278C45.0852 15.6278 44.9612 15.6278 44.8372 15.5658C44.7131 15.5038 44.6511 15.4418 44.5891 15.3177L44.7131 15.2557C44.7752 15.4418 44.9612 15.5038 45.2093 15.5038C45.3953 15.5038 45.5193 15.4418 45.5814 15.3798C45.6434 15.3177 45.7054 15.1937 45.7054 15.0697V13.5193H45.8914V15.0697C45.8914 15.2557 45.8294 15.4418 45.7054 15.5038C45.5193 15.5658 45.3953 15.6278 45.2093 15.6278Z" fill="#182958"/>
<path d="M47.628 14.0775H47.752V15.5659H47.628V15.2558C47.566 15.3798 47.504 15.4419 47.38 15.5039C47.2559 15.5659 47.1319 15.6279 47.0079 15.6279C46.8218 15.6279 46.6358 15.5659 46.4497 15.3798C46.3257 15.2558 46.2017 15.0698 46.2017 14.8217C46.2017 14.5736 46.2637 14.3876 46.4497 14.2636C46.5738 14.1395 46.7598 14.0155 47.0079 14.0155C47.1319 14.0155 47.2559 14.0775 47.38 14.1395C47.504 14.2015 47.566 14.3256 47.628 14.3876V14.0775ZM46.5117 15.3178C46.6358 15.4419 46.7598 15.5039 46.9458 15.5039C47.1319 15.5039 47.2559 15.4419 47.38 15.3178C47.504 15.1938 47.566 15.0698 47.566 14.8837C47.566 14.6977 47.504 14.5736 47.38 14.4496C47.2559 14.3256 47.1319 14.2636 46.9458 14.2636C46.7598 14.2636 46.6358 14.3256 46.5117 14.4496C46.3877 14.5736 46.3257 14.6977 46.3257 14.8837C46.3257 15.0078 46.3877 15.1938 46.5117 15.3178Z" fill="#182958"/>
<path d="M50.8526 14.0775H50.9767V15.5659H50.8526V15.2558C50.7906 15.3798 50.7286 15.4419 50.6046 15.5039C50.4805 15.5659 50.3565 15.6279 50.2325 15.6279C50.0464 15.6279 49.8604 15.5659 49.6743 15.3798C49.5503 15.2558 49.4263 15.0698 49.4263 14.8217C49.4263 14.5736 49.4883 14.3876 49.6743 14.2636C49.7984 14.1395 49.9844 14.0155 50.2325 14.0155C50.3565 14.0155 50.4805 14.0775 50.6046 14.1395C50.7286 14.2015 50.7906 14.3256 50.8526 14.3876V14.0775ZM49.7363 15.3178C49.8604 15.4419 49.9844 15.5039 50.1705 15.5039C50.3565 15.5039 50.4805 15.4419 50.6046 15.3178C50.7286 15.1938 50.7906 15.0698 50.7906 14.8837C50.7906 14.6977 50.7286 14.5736 50.6046 14.4496C50.4805 14.3256 50.3565 14.2636 50.1705 14.2636C49.9844 14.2636 49.8604 14.3256 49.7363 14.4496C49.6123 14.5736 49.5503 14.6977 49.5503 14.8837C49.5503 15.0078 49.6123 15.1938 49.7363 15.3178Z" fill="#182958"/>
<path d="M51.5967 14.3876C51.6587 14.2015 51.8447 14.0775 52.0928 14.0775V14.2015C51.9688 14.2015 51.8448 14.2636 51.7207 14.3256C51.5967 14.3876 51.5967 14.5736 51.5967 14.7597V15.5659H51.4727V14.0775H51.5967V14.3876Z" fill="#182958"/>
<path d="M53.0854 14.2636H52.6513V15.2558C52.6513 15.3178 52.6513 15.3799 52.7133 15.4419C52.7753 15.5039 52.7753 15.5039 52.8373 15.5039C52.8993 15.5039 52.9613 15.5039 53.0854 15.5039V15.6279C52.8993 15.6279 52.7133 15.6279 52.6513 15.5659C52.5272 15.5039 52.5272 15.3799 52.5272 15.2558V13.7675L52.6513 13.7054V14.1396H53.0854V14.2636Z" fill="#182958"/>
<path d="M54.6978 14.0775H54.8219V15.5659H54.6978V15.2558C54.6358 15.3798 54.5738 15.4419 54.4498 15.5039C54.3257 15.5659 54.2017 15.6279 54.0777 15.6279C53.8916 15.6279 53.7056 15.5659 53.5195 15.3798C53.3955 15.2558 53.2715 15.0698 53.2715 14.8217C53.2715 14.5736 53.3335 14.3876 53.5195 14.2636C53.6436 14.1395 53.8296 14.0155 54.0777 14.0155C54.2017 14.0155 54.3257 14.0775 54.4498 14.1395C54.5738 14.2015 54.6358 14.3256 54.6978 14.3876V14.0775ZM53.5816 15.3178C53.7056 15.4419 53.8296 15.5039 54.0157 15.5039C54.2017 15.5039 54.3257 15.4419 54.4498 15.3178C54.5738 15.1938 54.6358 15.0698 54.6358 14.8837C54.6358 14.6977 54.5738 14.5736 54.4498 14.4496C54.3257 14.3256 54.2017 14.2636 54.0157 14.2636C53.8296 14.2636 53.7056 14.3256 53.5816 14.4496C53.4575 14.5736 53.3955 14.6977 53.3955 14.8837C53.3955 15.0078 53.4575 15.1938 53.5816 15.3178Z" fill="#182958"/>
<path d="M49.3643 14.0774H49.1163L48.3721 14.7596V13.5193H48.248V15.6278H48.3721V14.8836L49.1783 15.6278H49.3643L48.5581 14.8216L49.3643 14.0774Z" fill="#182958"/>
<path d="M45.2713 16.62C45.4573 16.62 45.6434 16.682 45.7674 16.806C45.8914 16.9301 45.9535 17.0541 45.9535 17.2402C45.9535 17.4262 45.8914 17.5502 45.7674 17.6743C45.6434 17.7983 45.4573 17.8603 45.2713 17.8603H44.7131V18.6665H44.5271V16.558H45.2713V16.62ZM45.2713 17.7983C45.3953 17.7983 45.5193 17.7363 45.6434 17.6743C45.7054 17.5502 45.7674 17.4882 45.7674 17.3022C45.7674 17.1781 45.7054 17.0541 45.6434 16.9301C45.5814 16.806 45.4573 16.806 45.2713 16.806H44.7131V17.7983H45.2713Z" fill="#182958"/>
<path d="M47.5039 17.2404H47.6279V18.7287H47.5039V18.4187C47.4419 18.5427 47.3798 18.6047 47.2558 18.6667C47.1318 18.7287 47.0077 18.7907 46.8837 18.7907C46.6977 18.7907 46.5116 18.7287 46.3256 18.5427C46.2015 18.4187 46.0775 18.2326 46.0775 17.9845C46.0775 17.7365 46.1395 17.5504 46.3256 17.4264C46.4496 17.3024 46.6357 17.1783 46.8837 17.1783C47.0077 17.1783 47.1318 17.2404 47.2558 17.3024C47.3798 17.3644 47.4419 17.4884 47.5039 17.5504V17.2404ZM46.3876 18.4187C46.5116 18.5427 46.6357 18.6047 46.8217 18.6047C47.0077 18.6047 47.1318 18.5427 47.2558 18.4187C47.3798 18.2946 47.4419 18.1706 47.4419 17.9845C47.4419 17.7985 47.3798 17.6745 47.2558 17.5504C47.1318 17.4264 47.0077 17.3644 46.8217 17.3644C46.6357 17.3644 46.5116 17.4264 46.3876 17.5504C46.2636 17.6745 46.2015 17.7985 46.2015 17.9845C46.2015 18.1706 46.2636 18.2946 46.3876 18.4187Z" fill="#182958"/>
<path d="M49.3643 17.1783C49.6124 17.1783 49.7364 17.2404 49.9224 17.4264C50.0465 17.5504 50.1085 17.7365 50.1085 17.9845C50.1085 17.9845 50.1085 17.9845 50.1085 18.0466C50.1085 18.0466 50.1085 18.0466 50.1085 18.1086H48.7441C48.7441 18.2946 48.8062 18.4187 48.9302 18.5427C49.0542 18.6667 49.1783 18.6667 49.3643 18.6667C49.4883 18.6667 49.6124 18.6667 49.6744 18.6047C49.7364 18.5427 49.8604 18.4807 49.8604 18.4187L49.9845 18.4807C49.9224 18.6047 49.8604 18.6667 49.7364 18.7287C49.6124 18.7907 49.4883 18.7907 49.3643 18.7907C49.1162 18.7907 48.9302 18.7287 48.8062 18.5427C48.6821 18.4187 48.5581 18.2326 48.5581 17.9845C48.5581 17.7365 48.6201 17.5504 48.8062 17.4264C48.9922 17.3024 49.1783 17.1783 49.3643 17.1783ZM49.3643 17.3644C49.1783 17.3644 49.0542 17.4264 48.9302 17.5504C48.8062 17.6745 48.7441 17.7985 48.7441 17.9845H49.9224C49.9224 17.7985 49.8604 17.6745 49.7364 17.5504C49.6744 17.3644 49.5504 17.3644 49.3643 17.3644Z" fill="#182958"/>
<path d="M52.093 17.1783C52.279 17.1783 52.4031 17.2404 52.4651 17.3024C52.5891 17.4264 52.5891 17.5504 52.5891 17.7365V18.6667H52.4651V17.7365C52.4651 17.6125 52.4031 17.4884 52.3411 17.4264C52.279 17.3644 52.155 17.3644 52.031 17.3644C51.9069 17.3644 51.7829 17.4264 51.7209 17.4884C51.6589 17.5504 51.5969 17.7365 51.5969 17.9225V18.7287H51.4728V17.7985C51.4728 17.6745 51.4108 17.5504 51.3488 17.4884C51.2868 17.3644 51.2248 17.3644 51.1007 17.3644C50.9767 17.3644 50.8527 17.4264 50.7907 17.4884C50.7287 17.5504 50.6666 17.7365 50.6666 17.9225V18.7287H50.5426V17.2404H50.6666V17.4884C50.7907 17.3024 50.9147 17.1783 51.1628 17.1783C51.2868 17.1783 51.3488 17.1783 51.4728 17.2404C51.5349 17.3024 51.5969 17.3644 51.6589 17.4884C51.7209 17.3644 51.7829 17.3024 51.8449 17.2404C51.8449 17.2404 51.969 17.1783 52.093 17.1783Z" fill="#182958"/>
<path d="M56.248 17.2404H56.4341V18.7287H56.31V18.4187C56.248 18.5427 56.186 18.6047 56.062 18.6667C55.9379 18.7287 55.8139 18.7907 55.6899 18.7907C55.5038 18.7907 55.3178 18.7287 55.1317 18.5427C55.0077 18.4187 54.8837 18.2326 54.8837 17.9845C54.8837 17.7365 54.9457 17.5504 55.1317 17.4264C55.2558 17.3024 55.4418 17.1783 55.6899 17.1783C55.8139 17.1783 55.9379 17.2404 56.062 17.3024C56.186 17.3644 56.248 17.4884 56.31 17.5504V17.2404H56.248ZM55.1937 18.4187C55.3178 18.5427 55.4418 18.6047 55.6279 18.6047C55.8139 18.6047 55.9379 18.5427 56.062 18.4187C56.186 18.2946 56.248 18.1706 56.248 17.9845C56.248 17.7985 56.186 17.6745 56.062 17.5504C55.9999 17.4264 55.8139 17.3644 55.6279 17.3644C55.4418 17.3644 55.3178 17.4264 55.1937 17.5504C55.0697 17.6745 55.0077 17.7985 55.0077 17.9845C55.0077 18.1706 55.0697 18.2946 55.1937 18.4187Z" fill="#182958"/>
<path d="M57.5506 17.1783C57.7366 17.1783 57.8607 17.2404 57.9847 17.3644C58.1087 17.4884 58.1707 17.6125 58.1707 17.7985V18.7287H58.0467V17.7985C58.0467 17.6745 57.9847 17.5504 57.9227 17.4884C57.7986 17.3644 57.6746 17.3644 57.5506 17.3644C57.4265 17.3644 57.3025 17.4264 57.1785 17.4884C57.0544 17.6125 57.0544 17.7365 57.0544 17.9225V18.7287H56.9304V17.2404H57.0544V17.5504C57.1165 17.3024 57.3025 17.1783 57.5506 17.1783Z" fill="#182958"/>
<path d="M59.9068 17.2404H60.0309V18.6667C60.0309 18.9148 59.9688 19.0388 59.8448 19.1628C59.7208 19.2869 59.5347 19.3489 59.2867 19.3489C59.1006 19.3489 58.9766 19.2869 58.8526 19.2249C58.7285 19.1628 58.6665 19.1008 58.6045 18.9768L58.7285 18.9148C58.8526 19.1008 59.0386 19.2249 59.2867 19.2249C59.4727 19.2249 59.5967 19.1628 59.7208 19.1008C59.8448 18.9768 59.9068 18.8528 59.9068 18.6667V18.4187C59.8448 18.5427 59.7828 18.6047 59.6588 18.6667C59.5347 18.7287 59.4107 18.7907 59.2867 18.7907C59.1006 18.7907 58.9146 18.7287 58.7285 18.5427C58.6045 18.4187 58.4805 18.2326 58.4805 17.9845C58.4805 17.7365 58.5425 17.5504 58.7285 17.4264C58.8526 17.3024 59.0386 17.1783 59.2867 17.1783C59.4107 17.1783 59.5347 17.2404 59.6588 17.3024C59.7828 17.3644 59.8448 17.4884 59.9068 17.5504V17.2404ZM58.7905 18.4187C58.9146 18.5427 59.0386 18.6047 59.2247 18.6047C59.4107 18.6047 59.5347 18.5427 59.6588 18.4187C59.7828 18.2946 59.8448 18.1706 59.8448 17.9845C59.8448 17.7985 59.7828 17.6745 59.6588 17.5504C59.5347 17.4264 59.4107 17.3644 59.2247 17.3644C59.0386 17.3644 58.9146 17.4264 58.7905 17.5504C58.6665 17.6745 58.6045 17.7985 58.6045 17.9845C58.6665 18.1706 58.7285 18.2946 58.7905 18.4187Z" fill="#182958"/>
<path d="M48.0621 16.558V18.7285H48.2482V16.558H48.0621Z" fill="#182958"/>
<path d="M53.8294 17.1784C53.7054 17.1784 53.5813 17.2404 53.4573 17.3024C53.3333 17.3644 53.2713 17.4885 53.2092 17.5505V16.6202L53.0852 16.6823V18.7288H53.2092V18.3567C53.2713 18.4807 53.3333 18.5427 53.4573 18.6047C53.5813 18.6668 53.7054 18.7288 53.8294 18.7288C54.0154 18.7288 54.2015 18.6668 54.3875 18.4807C54.5116 18.3567 54.6356 18.1706 54.6356 17.9226C54.6356 17.6745 54.5736 17.4885 54.3875 17.3644C54.2015 17.3024 54.0154 17.1784 53.8294 17.1784ZM54.2635 18.4187C54.1395 18.5427 54.0154 18.6047 53.8294 18.6047C53.6433 18.6047 53.5193 18.5427 53.3953 18.4187C53.2713 18.2947 53.2092 18.1706 53.2092 17.9846C53.2092 17.7985 53.2713 17.6745 53.3953 17.5505C53.5193 17.4264 53.6433 17.3644 53.8294 17.3644C54.0154 17.3644 54.1395 17.4264 54.2635 17.5505C54.3875 17.6745 54.4495 17.7985 54.4495 17.9846C54.4495 18.1706 54.3875 18.2947 54.2635 18.4187Z" fill="#182958"/>
<path d="M28.9613 11.2249L28.6512 10.2947H26.5427L26.2326 11.2249H25.1163L26.9148 6.01562H28.2171L30.0776 11.2249H28.9613ZM26.9148 9.36447H28.3411L27.597 7.25594L26.9148 9.36447Z" fill="#182958"/>
<path d="M32.3101 11.349C31.8139 11.349 31.3798 11.2249 31.0077 10.9769C30.6356 10.7288 30.3876 10.4187 30.2635 10.0466L31.1318 9.55051C31.3178 10.1087 31.7519 10.3567 32.3101 10.3567C32.6201 10.3567 32.8062 10.2947 32.9302 10.1707C33.0542 10.0466 33.1163 9.92261 33.1163 9.79857C33.1163 9.61253 33.0543 9.4885 32.8682 9.36447C32.6822 9.24043 32.4341 9.17842 32 9.05439C31.7519 8.99237 31.5659 8.93036 31.3798 8.86834C31.1938 8.80632 31.0698 8.68229 30.8837 8.62028C30.6977 8.49625 30.5736 8.37222 30.5116 8.18617C30.4496 8.00012 30.3876 7.81408 30.3876 7.56601C30.3876 7.06989 30.5736 6.6978 30.8837 6.44973C31.1938 6.13966 31.6279 6.01562 32.124 6.01562C32.5581 6.01562 32.9302 6.13966 33.2403 6.3257C33.5504 6.51175 33.7984 6.82183 33.9845 7.19392L33.1163 7.69004C32.9302 7.25594 32.5581 7.00787 32.124 7.00787C31.938 7.00787 31.7519 7.06989 31.6279 7.13191C31.5039 7.25594 31.4418 7.37997 31.4418 7.504C31.4418 7.69005 31.5039 7.81408 31.6279 7.87609C31.7519 8.00012 32 8.06214 32.4341 8.18617C32.6201 8.24818 32.7442 8.24818 32.8062 8.3102C32.8682 8.3102 32.9922 8.37222 33.1163 8.43423C33.2403 8.49625 33.3643 8.55826 33.4263 8.62028C33.4884 8.68229 33.6124 8.74431 33.6744 8.80632C33.7984 8.86834 33.8605 8.99237 33.9225 9.05439C33.9845 9.1164 34.0465 9.24043 34.0465 9.36447C34.1085 9.4885 34.1085 9.61253 34.1085 9.79857C34.1085 10.2947 33.9225 10.6668 33.6124 10.9149C33.3023 11.2249 32.8682 11.349 32.3101 11.349Z" fill="#182958"/>
<path d="M35.9069 6.01562H34.8527V11.2249H35.9069V6.01562Z" fill="#182958"/>
<path d="M40.3101 11.2249L40 10.2947H37.8914L37.5814 11.2249H36.4651L38.2635 6.01562H39.5659L41.4263 11.2249H40.3101ZM38.2015 9.36447H39.6279L38.8837 7.25594L38.2015 9.36447Z" fill="#182958"/>
<path d="M44.9612 6.01562H46.0155V11.2249H45.2093L42.9767 8.06214V11.2249H41.9845V6.01562H42.7287L44.9612 9.24043V6.01562Z" fill="#182958"/>
<path d="M53.7054 8.43411V8.80621C53.7054 9.55039 53.4573 10.1705 52.9612 10.6047C52.4651 11.0388 51.8449 11.2868 51.1008 11.2868C50.2946 11.2868 49.6124 11.0388 49.1163 10.4806C48.6201 10.0465 48.3721 9.42636 48.3721 8.68218C48.3721 7.93799 48.6201 7.25582 49.1783 6.75969C49.6744 6.26357 50.3566 5.95349 51.1008 5.95349C51.5969 5.95349 52.031 6.07752 52.4651 6.26357C52.8372 6.51163 53.2093 6.75969 53.3953 7.13179L52.5271 7.62791C52.4031 7.44186 52.217 7.25582 51.969 7.13179C51.7209 7.00776 51.4108 6.94574 51.1008 6.94574C50.6046 6.94574 50.1705 7.13179 49.8604 7.44186C49.5504 7.75194 49.3643 8.18605 49.3643 8.68218C49.3643 9.1783 49.5504 9.55039 49.8604 9.92249C50.1705 10.2326 50.6046 10.4186 51.1628 10.4186C51.5349 10.4186 51.907 10.3566 52.155 10.1705C52.4031 9.9845 52.5891 9.73644 52.7132 9.42636H51.1628V8.49613H53.7054V8.43411Z" fill="#182958"/>
<path d="M57.6744 11.2249L57.3644 10.2947H55.2558L54.9457 11.2249H53.8295L55.6279 6.01562H56.9302L58.7907 11.2249H57.6744ZM55.5659 9.36447H57.0543L56.3101 7.25594L55.5659 9.36447Z" fill="#182958"/>
<path d="M64.434 6.01562V11.2249H63.4418V7.87609L61.9534 10.2947H61.8294L60.341 7.87609V11.2249H59.3488V6.01562H60.403L61.8914 8.49625L63.3798 6.01562H64.434Z" fill="#182958"/>
<path d="M66.4807 10.2947H68.7132V11.2249H65.4884V6.01562H68.6512V7.00787H66.4807V8.12415H68.4652V9.1164H66.4807V10.2947Z" fill="#182958"/>
<path d="M71.2556 11.349C70.7595 11.349 70.3254 11.2249 69.9533 10.9769C69.5812 10.7288 69.3331 10.4187 69.2091 10.0466L70.0773 9.55051C70.2634 10.1087 70.6975 10.3567 71.2556 10.3567C71.5657 10.3567 71.7517 10.2947 71.8758 10.1707C71.9998 10.0466 72.0618 9.92261 72.0618 9.79857C72.0618 9.61253 71.9998 9.4885 71.8138 9.36447C71.6277 9.24043 71.3797 9.17842 70.9455 9.05439C70.6975 8.99237 70.5114 8.93036 70.3254 8.86834C70.1393 8.80632 70.0153 8.68229 69.8293 8.62028C69.6432 8.49625 69.5192 8.37222 69.4572 8.18617C69.3952 8.00012 69.3331 7.81408 69.3331 7.56601C69.3331 7.06989 69.5192 6.6978 69.8293 6.44973C70.1393 6.13966 70.5734 6.01562 71.0696 6.01562C71.5037 6.01562 71.8758 6.13966 72.1859 6.3257C72.4959 6.51175 72.744 6.82183 72.93 7.19392L72.0618 7.69004C71.8758 7.25594 71.5037 7.00787 71.0696 7.00787C70.8835 7.00787 70.6975 7.06989 70.5735 7.13191C70.4494 7.25594 70.3874 7.37997 70.3874 7.504C70.3874 7.69005 70.4494 7.81408 70.5735 7.87609C70.6975 8.00012 70.9455 8.06214 71.3797 8.18617C71.5657 8.24818 71.6897 8.24818 71.7517 8.3102C71.8138 8.3102 71.9378 8.37222 72.0618 8.43423C72.1859 8.49625 72.3099 8.55826 72.3719 8.62028C72.4339 8.68229 72.5579 8.74431 72.62 8.80632C72.744 8.86834 72.806 8.99237 72.868 9.05439C72.93 9.1164 72.9921 9.24043 72.9921 9.36447C73.0541 9.4885 73.0541 9.61253 73.0541 9.79857C73.0541 10.2947 72.868 10.6668 72.5579 10.9149C72.2479 11.2249 71.8138 11.349 71.2556 11.349Z" fill="#182958"/>
<path d="M25.1783 18.7288V17.9847L26.9768 16.1242C27.3489 15.6901 27.597 15.38 27.597 15.0699C27.597 14.8839 27.5349 14.6978 27.4109 14.5738C27.2869 14.4498 27.1008 14.3878 26.9148 14.3878C26.5427 14.3878 26.2326 14.5738 26.0466 15.0079L25.1783 14.5118C25.3644 14.1397 25.5504 13.8916 25.8605 13.7056C26.1706 13.5195 26.4807 13.3955 26.8528 13.3955C27.3489 13.3955 27.721 13.5195 28.0931 13.8296C28.4032 14.1397 28.5892 14.5118 28.5892 15.0079C28.5892 15.5661 28.2791 16.1242 27.721 16.6823L26.7287 17.6746H28.7132V18.6668H25.1783V18.7288Z" fill="#182958"/>
<path d="M31.3799 18.8529C30.7597 18.8529 30.2016 18.6048 29.8295 18.1087C29.4574 17.6126 29.2714 16.9304 29.2714 16.1242C29.2714 15.318 29.4574 14.6358 29.8295 14.1397C30.2016 13.6436 30.6977 13.3955 31.3799 13.3955C32.0621 13.3955 32.5582 13.6436 32.9303 14.1397C33.3024 14.6358 33.4884 15.318 33.4884 16.1242C33.4884 16.9304 33.3024 17.6126 32.9303 18.1087C32.5582 18.6048 32 18.8529 31.3799 18.8529ZM30.5737 17.3645C30.7597 17.6746 31.0078 17.7986 31.3799 17.7986C31.752 17.7986 32 17.6746 32.1861 17.3645C32.3721 17.0544 32.4342 16.6203 32.4342 16.1242C32.4342 15.5661 32.3721 15.1319 32.1861 14.8219C32 14.5118 31.752 14.3878 31.3799 14.3878C31.0078 14.3878 30.7597 14.5118 30.5737 14.8219C30.3876 15.1319 30.3256 15.5661 30.3256 16.1242C30.3256 16.6823 30.3876 17.1164 30.5737 17.3645Z" fill="#182958"/>
<path d="M34.3567 13.5193H35.3489V18.7286H34.3567V14.5736V13.5193Z" fill="#182958"/>
<path d="M39.2559 16.0002C39.752 16.3102 40.0001 16.6823 40.0001 17.2405C40.0001 17.7366 39.8141 18.1087 39.504 18.3567C39.1939 18.6048 38.6978 18.7909 38.1396 18.7909C37.5815 18.7909 37.0854 18.6668 36.7753 18.3567C36.4652 18.1087 36.2792 17.6746 36.2792 17.2405C36.2792 16.6823 36.5272 16.2482 37.0234 16.0002C36.6513 15.7521 36.4652 15.38 36.4652 14.9459C36.4652 14.4498 36.6513 14.0777 36.9613 13.8296C37.2714 13.5815 37.7055 13.4575 38.2017 13.4575C38.6978 13.4575 39.0699 13.5815 39.38 13.8296C39.69 14.0777 39.8761 14.4498 39.8761 14.9459C39.8141 15.38 39.628 15.7521 39.2559 16.0002ZM37.5195 17.6746C37.7055 17.7986 37.8916 17.8606 38.1396 17.8606C38.3877 17.8606 38.5738 17.7986 38.7598 17.6746C38.9458 17.5505 39.0079 17.3645 39.0079 17.1164C39.0079 16.8684 38.9458 16.7443 38.7598 16.6203C38.5738 16.4963 38.3877 16.4343 38.1396 16.4343C37.8916 16.4343 37.7055 16.4963 37.5195 16.6203C37.3334 16.7443 37.2714 16.9304 37.2714 17.1164C37.2714 17.3645 37.3334 17.5505 37.5195 17.6746ZM38.5738 14.5118C38.4497 14.3878 38.2637 14.3257 38.0776 14.3257C37.8916 14.3257 37.7055 14.3878 37.5815 14.5118C37.4575 14.6358 37.3955 14.7598 37.3955 14.9459C37.3955 15.1319 37.4575 15.256 37.5815 15.38C37.7055 15.504 37.8916 15.566 38.0776 15.566C38.2637 15.566 38.4497 15.504 38.5738 15.38C38.6978 15.256 38.7598 15.1319 38.7598 14.9459C38.7598 14.8219 38.6978 14.6358 38.5738 14.5118Z" fill="#182958"/>
<path d="M42.3567 13.2714H42.1707V18.9768H42.3567V13.2714Z" fill="#182958"/>
</svg>
