<svg width="99" height="24" viewBox="0 0 99 24" version="1.1" xmlns="http://www.w3.org/2000/svg" xmlns:xlink="http://www.w3.org/1999/xlink">
<title>Page 1</title>
<desc>Created using Figma</desc>
<g id="Canvas" transform="translate(-30 -23)">
<g id="Page 1">
<g id="Fill 1">
<use xlink:href="#path0_fill" transform="translate(29.9995 23.1365)" fill="#23ABFA"/>
</g>
<g id="Fill 4">
<use xlink:href="#path1_fill" transform="translate(47.1407 30.2459)" fill="#23ABFA"/>
</g>
<g id="Fill 6">
<use xlink:href="#path2_fill" transform="translate(64.8533 23.1366)" fill="#23ABFA"/>
</g>
<g id="Fill 9">
<use xlink:href="#path3_fill" transform="translate(81.5434 30.2459)" fill="#23ABFA"/>
</g>
<g id="Fill 11">
<use xlink:href="#path4_fill" transform="translate(98.3251 30.2469)" fill="#23ABFA"/>
</g>
<g id="Fill 13">
<use xlink:href="#path5_fill" transform="translate(113.117 30.2468)" fill="#23ABFA"/>
</g>
</g>
</g>
<defs>
<path id="path0_fill" fill-rule="evenodd" d="M 10.1511 15.3352C 10.1511 12.4409 9.0875 10.9955 6.95795 10.9955C 6.49772 10.9955 6.0409 11.0557 5.58749 11.1761C 5.13636 11.2977 4.76931 11.4477 4.48636 11.6284L 4.48636 19.7932C 4.71136 19.833 4.98863 19.8682 5.33295 19.8989C 5.675 19.9273 6.04545 19.9443 6.44659 19.9443C 7.67045 19.9443 8.59545 19.5216 9.21818 18.6773C 9.8409 17.8341 10.1511 16.7205 10.1511 15.3352L 10.1511 15.3352ZM 14.7295 15.4545C 14.7295 16.7205 14.5466 17.8659 14.1739 18.8898C 13.8023 19.9114 13.2648 20.7875 12.5614 21.5102C 11.8591 22.233 10.9966 22.7898 9.97159 23.1795C 8.94773 23.5739 7.78068 23.7705 6.47727 23.7705C 5.93523 23.7705 5.36591 23.742 4.775 23.6943C 4.18295 23.6432 3.6 23.5773 3.02614 23.4977C 2.45568 23.4182 1.90455 23.3216 1.38409 23.2136C 0.8625 23.1011 0.398864 22.9841 0 22.8659L 0 0.723864L 4.48636 0L 4.48636 7.89205C 4.98864 7.67386 5.5125 7.49886 6.05568 7.38068C 6.59545 7.2625 7.17727 7.2 7.80114 7.2C 8.92614 7.2 9.92273 7.39659 10.7841 7.78636C 11.6489 8.17841 12.3705 8.73636 12.9545 9.45795C 13.5364 10.1841 13.9773 11.0511 14.2795 12.067C 14.583 13.0795 14.7295 14.2091 14.7295 15.4545L 14.7295 15.4545Z"/>
<path id="path1_fill" fill-rule="evenodd" d="M 7.11022 13.1341C 7.54999 13.1341 7.97386 13.125 8.37272 13.1057C 8.77726 13.0852 9.09886 13.0557 9.33863 13.0136L 9.33863 9.61023C 9.15795 9.57046 8.88636 9.52955 8.52499 9.48978C 8.1659 9.45 7.83408 9.42955 7.53181 9.42955C 7.11022 9.42955 6.71249 9.45569 6.33976 9.50569C 5.97158 9.55569 5.64317 9.65114 5.36363 9.79319C 5.08181 9.93182 4.86022 10.1227 4.69999 10.3636C 4.53976 10.6046 4.45795 10.9068 4.45795 11.2659C 4.45795 11.9716 4.69545 12.458 5.1659 12.7284C 5.63749 12.9989 6.28636 13.1341 7.11022 13.1341L 7.11022 13.1341ZM 6.75114 0C 8.075 0 9.17955 0.152273 10.0636 0.451136C 10.9455 0.752273 11.6545 1.18523 12.1864 1.74659C 12.7193 2.31136 13.0955 2.99318 13.3159 3.79545C 13.5352 4.6 13.6489 5.49318 13.6489 6.47727L 13.6489 15.8159C 13.0045 15.9568 12.1102 16.1227 10.9693 16.3125C 9.82045 16.5034 8.43523 16.6 6.80568 16.6C 5.78409 16.6 4.85568 16.5102 4.02159 16.3284C 3.1875 16.1489 2.47159 15.8511 1.87045 15.4386C 1.26591 15.0295 0.804545 14.4909 0.481818 13.8284C 0.161364 13.1636 0 12.3534 0 11.3886C 0 10.4648 0.186364 9.68068 0.555682 9.0375C 0.927273 8.39432 1.42614 7.88295 2.05 7.50227C 2.67273 7.11932 3.38523 6.84432 4.18977 6.67386C 4.99091 6.50227 5.825 6.41932 6.68864 6.41932C 7.27045 6.41932 7.7875 6.44091 8.2375 6.49432C 8.69091 6.54432 9.05909 6.60795 9.33864 6.68864L 9.33864 6.26591C 9.33864 5.50455 9.10795 4.88977 8.64659 4.42955C 8.18295 3.96818 7.37955 3.73523 6.23636 3.73523C 5.47273 3.73523 4.71932 3.79091 3.97614 3.90227C 3.23523 4.01136 2.58977 4.16705 2.05 4.36591L 1.47727 0.752273C 1.73636 0.672727 2.06591 0.588636 2.45455 0.496591C 2.84886 0.407955 3.275 0.326136 3.73409 0.256818C 4.19773 0.185227 4.68409 0.126136 5.19659 0.0761364C 5.71023 0.0238636 6.225 0 6.75114 0L 6.75114 0Z"/>
<path id="path2_fill" fill-rule="evenodd" d="M 0 23.3773L 0 0.722727L 4.48977 0L 4.48977 7.59205C 4.79432 7.49091 5.17614 7.39659 5.65 7.30455C 6.12159 7.21364 6.57841 7.16705 7.02273 7.16705C 8.30341 7.16705 9.37727 7.34545 10.2295 7.69773C 11.0818 8.04886 11.7659 8.54659 12.2807 9.18864C 12.7909 9.83182 13.1511 10.5932 13.3636 11.475C 13.5727 12.3614 13.6807 13.3455 13.6807 14.4307L 13.6807 23.3773L 9.19091 23.3773L 9.19091 14.9727C 9.19091 13.5284 9.00227 12.5011 8.63182 11.8989C 8.26136 11.2977 7.57273 10.9955 6.56932 10.9955C 6.16818 10.9955 5.79091 11.0318 5.44205 11.1011C 5.0875 11.1716 4.77273 11.2466 4.48977 11.3261L 4.48977 23.3773L 0 23.3773Z"/>
<path id="path3_fill" fill-rule="evenodd" d="M 7.11023 13.1341C 7.55341 13.1341 7.975 13.125 8.37614 13.1057C 8.77955 13.0852 9.10114 13.0557 9.34205 13.0136L 9.34205 9.61023C 9.16023 9.57046 8.8875 9.52955 8.52841 9.48978C 8.16591 9.45 7.83409 9.42955 7.53296 9.42955C 7.11023 9.42955 6.71591 9.45569 6.34091 9.50569C 5.97046 9.55569 5.64659 9.65114 5.3625 9.79319C 5.08409 9.93182 4.8625 10.1227 4.69886 10.3636C 4.53864 10.6046 4.46136 10.9068 4.46136 11.2659C 4.46136 11.9716 4.69659 12.458 5.16705 12.7284C 5.63977 12.9989 6.28636 13.1341 7.11023 13.1341L 7.11023 13.1341ZM 6.75 0C 8.075 0 9.17955 0.152273 10.0648 0.451136C 10.9477 0.752273 11.6568 1.18523 12.1886 1.74659C 12.7205 2.31136 13.0955 2.99318 13.3182 3.79545C 13.5386 4.6 13.6477 5.49318 13.6477 6.47727L 13.6477 15.8159C 13.0057 15.9568 12.1102 16.1227 10.9659 16.3125C 9.82045 16.5034 8.43636 16.6 6.81136 16.6C 5.78523 16.6 4.85682 16.5102 4.02273 16.3284C 3.18977 16.1489 2.46932 15.8511 1.86932 15.4386C 1.26477 15.0295 0.805682 14.4909 0.481818 13.8284C 0.163636 13.1636 0 12.3534 0 11.3886C 0 10.4648 0.186364 9.68068 0.556818 9.0375C 0.931818 8.39432 1.42727 7.88295 2.05 7.50227C 2.67045 7.11932 3.38523 6.84432 4.18636 6.67386C 4.99091 6.50227 5.825 6.41932 6.68977 6.41932C 7.27273 6.41932 7.7875 6.44091 8.24318 6.49432C 8.69318 6.54432 9.05795 6.60795 9.34205 6.68864L 9.34205 6.26591C 9.34205 5.50455 9.11023 4.88977 8.64659 4.42955C 8.18523 3.96818 7.38523 3.73523 6.23636 3.73523C 5.47386 3.73523 4.72045 3.79091 3.97614 3.90227C 3.23523 4.01136 2.59205 4.16705 2.05 4.36591L 1.47614 0.752273C 1.7375 0.672727 2.06364 0.588636 2.45682 0.496591C 2.84773 0.407955 3.27386 0.326136 3.73523 0.256818C 4.19545 0.185227 4.68409 0.126136 5.19545 0.0761364C 5.71136 0.0238636 6.22841 0 6.75 0L 6.75 0Z"/>
<path id="path4_fill" fill-rule="evenodd" d="M 5.48523 13.0455C 6.30568 13.0455 6.88636 12.9648 7.22841 12.8011C 7.57273 12.642 7.74205 12.3318 7.74205 11.8693C 7.74205 11.508 7.52159 11.1909 7.07727 10.9193C 6.63864 10.65 5.96364 10.3432 5.0625 10C 4.36136 9.73977 3.71705 9.47045 3.14659 9.18636C 2.57614 8.90682 2.08864 8.56932 1.68409 8.17727C 1.28409 7.78636 0.973864 7.32045 0.752273 6.77727C 0.530682 6.23523 0.423864 5.58182 0.423864 4.81932C 0.423864 3.33295 0.973864 2.15795 2.07727 1.29545C 3.18409 0.429545 4.70114 0 6.62955 0C 7.59091 0 8.51818 0.0840909 9.39886 0.255682C 10.283 0.426136 10.9864 0.6125 11.508 0.8125L 10.7261 4.30909C 10.2023 4.12614 9.63409 3.96705 9.02159 3.82614C 8.40909 3.68523 7.72159 3.61477 6.96023 3.61477C 5.55341 3.61477 4.84886 4.00682 4.84886 4.78864C 4.84886 4.96932 4.88295 5.13068 4.94091 5.27045C 5 5.4125 5.12045 5.54659 5.30227 5.67841C 5.48523 5.80795 5.72841 5.95 6.03864 6.10227C 6.35341 6.25227 6.74886 6.42045 7.22841 6.60227C 8.21364 6.96705 9.02841 7.32955 9.67045 7.67955C 10.3114 8.03636 10.8216 8.41818 11.192 8.82727C 11.5659 9.2375 11.825 9.69432 11.9761 10.1966C 12.125 10.6966 12.2023 11.2773 12.2023 11.9386C 12.2023 13.5 11.6125 14.6852 10.4398 15.4852C 9.26364 16.2875 7.59886 16.6898 5.45341 16.6898C 4.04545 16.6898 2.87614 16.5693 1.94318 16.3273C 1.00795 16.0864 0.361364 15.8852 0 15.725L 0.752273 12.0784C 1.51591 12.3807 2.3 12.6182 3.10227 12.7875C 3.90568 12.9602 4.70114 13.0455 5.48523 13.0455"/>
<path id="path5_fill" fill-rule="evenodd" d="M 10.9955 8.31477C 10.9955 6.92727 10.7182 5.83863 10.1693 5.04545C 9.61479 4.25227 8.82956 3.85454 7.80342 3.85454C 6.77842 3.85454 5.9841 4.25227 5.42274 5.04545C 4.8591 5.83863 4.57956 6.92727 4.57956 8.31477C 4.57956 9.70113 4.8591 10.8011 5.42274 11.6114C 5.9841 12.425 6.77842 12.8341 7.80342 12.8341C 8.82956 12.8341 9.61479 12.425 10.1693 11.6114C 10.7182 10.8011 10.9955 9.70113 10.9955 8.31477L 10.9955 8.31477ZM 15.5739 8.31477C 15.5739 9.56023 15.3943 10.6989 15.0307 11.7341C 14.6727 12.7682 14.1489 13.6511 13.4659 14.3852C 12.7818 15.117 11.9659 15.6841 11.0136 16.0864C 10.0568 16.4875 8.98636 16.6898 7.80341 16.6898C 6.63864 16.6898 5.57955 16.4875 4.62386 16.0864C 3.66932 15.6841 2.85227 15.117 2.16818 14.3852C 1.48523 13.6511 0.954545 12.7682 0.570455 11.7341C 0.188636 10.6989 0 9.56023 0 8.31477C 0 7.06818 0.197727 5.93409 0.590909 4.91023C 0.980682 3.88523 1.52045 3.01136 2.21477 2.2875C 2.90795 1.56477 3.73068 1.00227 4.68295 0.601136C 5.63977 0.201136 6.67841 0 7.80341 0C 8.94432 0 9.99659 0.201136 10.9511 0.601136C 11.9057 1.00227 12.7239 1.56477 13.4057 2.2875C 14.0898 3.01136 14.6216 3.88523 15.0034 4.91023C 15.3852 5.93409 15.5739 7.06818 15.5739 8.31477L 15.5739 8.31477Z"/>
</defs>
</svg>