<svg width="56" height="46" viewBox="0 0 56 46" version="1.1" xmlns="http://www.w3.org/2000/svg" xmlns:xlink="http://www.w3.org/1999/xlink">
<title>Group</title>
<desc>Created using Figma</desc>
<g id="Canvas" transform="translate(185 -2114)">
<g id="Group">
<g id="Rectangle">
<mask id="mask0_outline_ins">
<use xlink:href="#path0_fill" fill="white" transform="matrix(1 -2.77556e-17 2.77556e-17 1 -185 2114)"/>
</mask>
<g mask="url(#mask0_outline_ins)">
<use xlink:href="#path1_stroke_2x" transform="matrix(1 -2.77556e-17 2.77556e-17 1 -185 2114)" fill="#FFFFFF"/>
</g>
</g>
<g id="KEPO MODE">
<use xlink:href="#path2_fill" transform="translate(-178.1 2120)" fill="#FFFFFF"/>
</g>
</g>
</g>
<defs>
<path id="path0_fill" d="M 0 5C 0 2.23858 2.23858 0 5 0L 50.2 0C 52.9614 0 55.2 2.23858 55.2 5L 55.2 41C 55.2 43.7614 52.9614 46 50.2 46L 5 46C 2.23858 46 0 43.7614 0 41L 0 5Z"/>
<path id="path1_stroke_2x" d="M 5 1L 50.2 1L 50.2 -1L 5 -1L 5 1ZM 54.2 5L 54.2 41L 56.2 41L 56.2 5L 54.2 5ZM 50.2 45L 5 45L 5 47L 50.2 47L 50.2 45ZM 1 41L 1 5L -1 5L -1 41L 1 41ZM 5 45C 2.79086 45 1 43.2091 1 41L -1 41C -1 44.3137 1.68629 47 5 47L 5 45ZM 54.2 41C 54.2 43.2091 52.4091 45 50.2 45L 50.2 47C 53.5137 47 56.2 44.3137 56.2 41L 54.2 41ZM 50.2 1C 52.4091 1 54.2 2.79086 54.2 5L 56.2 5C 56.2 1.68629 53.5137 -1 50.2 -1L 50.2 1ZM 5 -1C 1.68629 -1 -1 1.68629 -1 5L 1 5C 1 2.79086 2.79086 1 5 1L 5 -1Z"/>
<path id="path2_fill" d="M 10.4614 13L 8.83836 13L 6.1489 9.12109L 5.32273 9.79492L 5.32273 13L 3.92234 13L 3.92234 4.43359L 5.32273 4.43359L 5.32273 8.52344C 5.70555 8.05469 6.0864 7.60352 6.46531 7.16992L 8.77976 4.43359L 10.3735 4.43359C 8.87742 6.19141 7.80515 7.44336 7.15672 8.18945L 10.4614 13ZM 17.8838 13L 13.0381 13L 13.0381 4.43359L 17.8838 4.43359L 17.8838 5.61719L 14.4385 5.61719L 14.4385 7.94922L 17.667 7.94922L 17.667 9.12109L 14.4385 9.12109L 14.4385 11.8105L 17.8838 11.8105L 17.8838 13ZM 26.8531 7.02344C 26.8531 7.91797 26.5602 8.60352 25.9742 9.08008C 25.3883 9.55664 24.5543 9.79492 23.4723 9.79492L 22.5816 9.79492L 22.5816 13L 21.1812 13L 21.1812 4.43359L 23.648 4.43359C 24.7184 4.43359 25.5191 4.65234 26.0504 5.08984C 26.5855 5.52734 26.8531 6.17187 26.8531 7.02344ZM 22.5816 8.61719L 23.3258 8.61719C 24.0445 8.61719 24.5719 8.49219 24.9078 8.24219C 25.2437 7.99219 25.4117 7.60156 25.4117 7.07031C 25.4117 6.57812 25.2613 6.21094 24.9605 5.96875C 24.6598 5.72656 24.191 5.60547 23.5543 5.60547L 22.5816 5.60547L 22.5816 8.61719ZM 37.6095 8.70508C 37.6095 10.0996 37.2599 11.1836 36.5607 11.957C 35.8654 12.7305 34.8791 13.1172 33.6017 13.1172C 32.3087 13.1172 31.3146 12.7344 30.6193 11.9688C 29.9279 11.1992 29.5822 10.1074 29.5822 8.69336C 29.5822 7.2793 29.9298 6.19336 30.6252 5.43555C 31.3244 4.67773 32.3205 4.29883 33.6134 4.29883C 34.8869 4.29883 35.8712 4.68359 36.5666 5.45312C 37.2619 6.22266 37.6095 7.30664 37.6095 8.70508ZM 31.0705 8.70508C 31.0705 9.75977 31.2834 10.5605 31.7091 11.1074C 32.1349 11.6504 32.7658 11.9219 33.6017 11.9219C 34.4337 11.9219 35.0607 11.6523 35.4826 11.1133C 35.9084 10.5742 36.1212 9.77148 36.1212 8.70508C 36.1212 7.6543 35.9103 6.85742 35.4884 6.31445C 35.0705 5.77148 34.4455 5.5 33.6134 5.5C 32.7736 5.5 32.1388 5.77148 31.7091 6.31445C 31.2834 6.85742 31.0705 7.6543 31.0705 8.70508ZM 8.0914 29L 5.60703 21.8457L 5.56015 21.8457C 5.62656 22.9082 5.65976 23.9043 5.65976 24.834L 5.65976 29L 4.38828 29L 4.38828 20.4336L 6.36289 20.4336L 8.74179 27.248L 8.77695 27.248L 11.2262 20.4336L 13.2066 20.4336L 13.2066 29L 11.859 29L 11.859 24.7637C 11.859 24.3379 11.8687 23.7832 11.8883 23.0996C 11.9117 22.416 11.9312 22.002 11.9469 21.8574L 11.9 21.8574L 9.32773 29L 8.0914 29ZM 23.068 24.7051C 23.068 26.0996 22.7184 27.1836 22.0191 27.957C 21.3238 28.7305 20.3375 29.1172 19.0602 29.1172C 17.7672 29.1172 16.773 28.7344 16.0777 27.9688C 15.3863 27.1992 15.0406 26.1074 15.0406 24.6934C 15.0406 23.2793 15.3883 22.1934 16.0836 21.4355C 16.7828 20.6777 17.7789 20.2988 19.0719 20.2988C 20.3453 20.2988 21.3297 20.6836 22.025 21.4531C 22.7203 22.2227 23.068 23.3066 23.068 24.7051ZM 16.5289 24.7051C 16.5289 25.7598 16.7418 26.5605 17.1676 27.1074C 17.5934 27.6504 18.2242 27.9219 19.0602 27.9219C 19.8922 27.9219 20.5191 27.6523 20.941 27.1133C 21.3668 26.5742 21.5797 25.7715 21.5797 24.7051C 21.5797 23.6543 21.3687 22.8574 20.9469 22.3145C 20.5289 21.7715 19.9039 21.5 19.0719 21.5C 18.232 21.5 17.5973 21.7715 17.1676 22.3145C 16.7418 22.8574 16.5289 23.6543 16.5289 24.7051ZM 31.8746 24.6348C 31.8746 26.0488 31.482 27.1309 30.6969 27.8809C 29.9117 28.627 28.7809 29 27.3043 29L 24.9078 29L 24.9078 20.4336L 27.5562 20.4336C 28.9195 20.4336 29.9801 20.8008 30.7379 21.5352C 31.4957 22.2695 31.8746 23.3027 31.8746 24.6348ZM 30.398 24.6816C 30.398 22.6309 29.4391 21.6055 27.5211 21.6055L 26.3082 21.6055L 26.3082 27.8223L 27.3043 27.8223C 29.3668 27.8223 30.398 26.7754 30.398 24.6816ZM 38.566 29L 33.7203 29L 33.7203 20.4336L 38.566 20.4336L 38.566 21.6172L 35.1207 21.6172L 35.1207 23.9492L 38.3492 23.9492L 38.3492 25.1211L 35.1207 25.1211L 35.1207 27.8105L 38.566 27.8105L 38.566 29Z"/>
</defs>
</svg>
